<svg xmlns="http://www.w3.org/2000/svg" width="90.713" height="80.801" viewBox="0 0 90.713 80.801">
  <g id="グループ_364" data-name="グループ 364" transform="translate(-7222.6 514.932) rotate(-90)">
    <path id="パス_872" data-name="パス 872" d="M-40.4-12.646v-68.5q0-3.555,5.708-5.913A35.03,35.03,0,0,1-21.26-89.414a31.018,31.018,0,0,1,8.237,1.06,16.464,16.464,0,0,1,5.913,2.7,83.947,83.947,0,0,1,5.127,7.246Q.342-74.717,8.477-61.182a2.174,2.174,0,0,0,1.367-.479,1.746,1.746,0,0,0,.615-1.47q0-.991-1.709-3.862L1.367-79.707v-3.76A24.97,24.97,0,0,1,9.844-87.91a34.146,34.146,0,0,1,10.322-1.572q8.682,0,14.014,3.145Q40.4-82.578,40.4-74.58V-9.844q0,5.879-5.605,8.545Q30.01,1.094,22.012,1.094A38.837,38.837,0,0,1,13.364.137a21.536,21.536,0,0,1-6.6-2.461A157.585,157.585,0,0,1-2.871-16.27L-9.844-27.891a1.983,1.983,0,0,0-1.982,2.119q0,1.162,1.982,4.443L-1.3-7.52V-3.9A32.21,32.21,0,0,1-19.175,1.23q-9.946,0-15.586-3.623A11.513,11.513,0,0,1-40.4-12.646Z" transform="translate(474.531 7312.082)" fill="#ff5206"/>
  </g>
</svg>
