<svg xmlns="http://www.w3.org/2000/svg" width="20.787" height="34.255" viewBox="0 0 20.787 34.255">
  <g id="グループ_348" data-name="グループ 348" transform="translate(-496.76 -6211.998)">
    <path id="パス_601" data-name="パス 601" d="M5.139,16.186A7.811,7.811,0,1,0,16.186,5.139C13.6,2.549,3.632.553.687.01A.581.581,0,0,0,.01.687C.553,3.633,2.549,13.6,5.139,16.186" transform="translate(496.76 6230.472) rotate(-90)" fill="#ff5206"/>
    <path id="パス_602" data-name="パス 602" d="M3.632,11.438a5.52,5.52,0,0,0,7.806-7.806C9.607,1.8,2.567.391.486.007A.41.41,0,0,0,.007.486C.391,2.567,1.8,9.607,3.632,11.438" transform="translate(499.085 6237.022) rotate(-45)" fill="#ff5206"/>
  </g>
</svg>
