<svg id="グループ_313" data-name="グループ 313" xmlns="http://www.w3.org/2000/svg" xmlns:xlink="http://www.w3.org/1999/xlink" width="708.324" height="467.29" viewBox="0 0 708.324 467.29">
  <defs>
    <clipPath id="clip-path">
      <rect id="長方形_17" data-name="長方形 17" width="708.324" height="467.29" fill="none"/>
    </clipPath>
  </defs>
  <path id="パス_779" data-name="パス 779" d="M33.76-29.08v14.12q0,7.48-3.86,11.42T17.68.4A27.015,27.015,0,0,1,8.82-1,28.422,28.422,0,0,1,1.6-4.64Q2.36-7.12,2.84-9.4a42.464,42.464,0,0,0,.72-5,27.862,27.862,0,0,0,7.6,4.6A19.23,19.23,0,0,0,17.8-8.52q3.28,0,4.68-1.48t1.44-5.08v-3.04q0-6.48-.36-10.96Z" transform="translate(649.936 317.287) rotate(129.106)" fill="#333"/>
  <path id="パス_780" data-name="パス 780" d="M24.648-28.353H34.32v15.522A12.934,12.934,0,0,1,30.4-3.354Q26.559.39,17.472.39q-9.2,0-12.6-3.568a12.786,12.786,0,0,1-3.315-9.38v-15.8h9.672v15.171a12.5,12.5,0,0,0,.254,2.788,3.564,3.564,0,0,0,1.638,2.009,8.187,8.187,0,0,0,4.465.936A9.711,9.711,0,0,0,22.5-8.4a3.715,3.715,0,0,0,1.853-2.126,12.713,12.713,0,0,0,.292-3Z" transform="translate(630.01 343.755) rotate(139.246)" fill="#333"/>
  <path id="パス_781" data-name="パス 781" d="M22.977-19.5q-4.4-.222-6.512-.259V-7.1q2.146-.037,6.512-.259V0H1.48V-7.363q4.255.222,6.475.259V-19.758q-2.22.037-6.475.259v-7.363h21.5Z" transform="matrix(-0.836, 0.549, -0.549, -0.836, 604.207, 368.27)" fill="#333"/>
  <path id="パス_782" data-name="パス 782" d="M18.72.39Q9.906.39,5.733-3.354T1.56-14.04q0-6.981,4.173-11.037T18.72-29.133q12.324,0,16.5,8.463a64.922,64.922,0,0,0-8.229,3.627A6.977,6.977,0,0,0,23.42-20.28a12.428,12.428,0,0,0-4.973-1.053q-3.744,0-5.577,1.97a6.859,6.859,0,0,0-1.833,4.856,6.887,6.887,0,0,0,1.97,5.09q1.969,1.969,6.026,1.969A10.529,10.529,0,0,0,24.18-8.522a6.338,6.338,0,0,0,2.808-3.413q3.2,1.716,8.19,3.861a11.6,11.6,0,0,1-6.513,6.591A25.951,25.951,0,0,1,18.72.39Z" transform="matrix(-0.892, 0.453, -0.453, -0.892, 582.351, 380.689)" fill="#333"/>
  <path id="パス_783" data-name="パス 783" d="M22.977-19.5q-4.4-.222-6.512-.259V-7.1q2.146-.037,6.512-.259V0H1.48V-7.363q4.255.222,6.475.259V-19.758q-2.22.037-6.475.259v-7.363h21.5Z" transform="translate(550.125 399.031) rotate(158.482)" fill="#333"/>
  <path id="パス_784" data-name="パス 784" d="M14.508-7.683Q16.731-7.722,25.974-8q1.17-.039,2.73-.117t3.471-.117a31.739,31.739,0,0,0-.332,3.666Q31.785-2.73,31.785,0H1.872V-8.7q2.145-1.209,4.68-2.984T13.1-16.341q3.744-2.73,5.421-3.9-3.081.039-12.363.429-3.2.156-4.29.195,0-2.886-.058-4.836T1.56-28.314H31.785v8.736q-2.067,1.365-7.644,5.3Q17.9-9.828,14.508-7.683Z" transform="translate(525.602 406.752) rotate(162.944)" fill="#333"/>
  <g id="グループ_33" data-name="グループ 33">
    <g id="グループ_32" data-name="グループ 32" clip-path="url(#clip-path)">
      <path id="パス_785" data-name="パス 785" d="M36.075-26.862,38.961,0H29.378l-.592-19.166L25.086,0H15.392L11.618-19.018,11.063,0H1.48L4.366-26.862h12.58l3.219,17.5,2.812-17.5Z" transform="matrix(-0.978, 0.209, -0.209, -0.978, 493.777, 418.837)" fill="#333"/>
      <text id="_" data-name=" " transform="translate(450.814 427.561) rotate(170.867)" fill="#333" font-size="37" font-family="DelaGothicOne-Regular, Dela Gothic One"><tspan x="0" y="0"> </tspan></text>
      <path id="パス_786" data-name="パス 786" d="M33.76-29.08v14.12q0,7.48-3.86,11.42T17.68.4A27.015,27.015,0,0,1,8.82-1,28.422,28.422,0,0,1,1.6-4.64Q2.36-7.12,2.84-9.4a42.464,42.464,0,0,0,.72-5,27.862,27.862,0,0,0,7.6,4.6A19.23,19.23,0,0,0,17.8-8.52q3.28,0,4.68-1.48t1.44-5.08v-3.04q0-6.48-.36-10.96Z" transform="matrix(-0.993, 0.119, -0.119, -0.993, 443.064, 426.063)" fill="#333"/>
      <path id="パス_787" data-name="パス 787" d="M24.648-28.353H34.32v15.522A12.934,12.934,0,0,1,30.4-3.354Q26.559.39,17.472.39q-9.2,0-12.6-3.568a12.786,12.786,0,0,1-3.315-9.38v-15.8h9.672v15.171a12.5,12.5,0,0,0,.254,2.788,3.564,3.564,0,0,0,1.638,2.009,8.187,8.187,0,0,0,4.465.936A9.711,9.711,0,0,0,22.5-8.4a3.715,3.715,0,0,0,1.853-2.126,12.713,12.713,0,0,0,.292-3Z" transform="translate(408.423 431.263) rotate(176.722)" fill="#333"/>
      <path id="パス_788" data-name="パス 788" d="M22.977-19.5q-4.4-.222-6.512-.259V-7.1q2.146-.037,6.512-.259V0H1.48V-7.363q4.255.222,6.475.259V-19.758q-2.22.037-6.475.259v-7.363h21.5Z" transform="matrix(-1, 0.008, -0.008, -1, 371.794, 435.215)" fill="#333"/>
      <path id="パス_789" data-name="パス 789" d="M18.72.39Q9.906.39,5.733-3.354T1.56-14.04q0-6.981,4.173-11.037T18.72-29.133q12.324,0,16.5,8.463a64.922,64.922,0,0,0-8.229,3.627A6.977,6.977,0,0,0,23.42-20.28a12.428,12.428,0,0,0-4.973-1.053q-3.744,0-5.577,1.97a6.859,6.859,0,0,0-1.833,4.856,6.887,6.887,0,0,0,1.97,5.09q1.969,1.969,6.026,1.969A10.529,10.529,0,0,0,24.18-8.522a6.338,6.338,0,0,0,2.808-3.413q3.2,1.716,8.19,3.861a11.6,11.6,0,0,1-6.513,6.591A25.951,25.951,0,0,1,18.72.39Z" transform="translate(345.69 433.586) rotate(-177.464)" fill="#333"/>
      <path id="パス_790" data-name="パス 790" d="M22.977-19.5q-4.4-.222-6.512-.259V-7.1q2.146-.037,6.512-.259V0H1.48V-7.363q4.255.222,6.475.259V-19.758q-2.22.037-6.475.259v-7.363h21.5Z" transform="translate(307.995 433.797) rotate(-174.372)" fill="#333"/>
      <path id="パス_791" data-name="パス 791" d="M14.508-7.683Q16.731-7.722,25.974-8q1.17-.039,2.73-.117t3.471-.117a31.739,31.739,0,0,0-.332,3.666Q31.785-2.73,31.785,0H1.872V-8.7q2.145-1.209,4.68-2.984T13.1-16.341q3.744-2.73,5.421-3.9-3.081.039-12.363.429-3.2.156-4.29.195,0-2.886-.058-4.836T1.56-28.314H31.785v8.736q-2.067,1.365-7.644,5.3Q17.9-9.828,14.508-7.683Z" transform="translate(282.271 429.407) rotate(-171.199)" fill="#333"/>
      <path id="パス_792" data-name="パス 792" d="M36.075-26.862,38.961,0H29.378l-.592-19.166L25.086,0H15.392L11.618-19.018,11.063,0H1.48L4.366-26.862h12.58l3.219,17.5,2.812-17.5Z" transform="translate(248.225 426.424) rotate(-166.693)" fill="#333"/>
    </g>
  </g>
  <text id="_2" data-name=" " transform="translate(205.782 415.88) rotate(-163.359)" fill="#333" font-size="37" font-family="DelaGothicOne-Regular, Dela Gothic One"><tspan x="0" y="0"> </tspan></text>
  <path id="パス_793" data-name="パス 793" d="M33.76-29.08v14.12q0,7.48-3.86,11.42T17.68.4A27.015,27.015,0,0,1,8.82-1,28.422,28.422,0,0,1,1.6-4.64Q2.36-7.12,2.84-9.4a42.464,42.464,0,0,0,.72-5,27.862,27.862,0,0,0,7.6,4.6A19.23,19.23,0,0,0,17.8-8.52q3.28,0,4.68-1.48t1.44-5.08v-3.04q0-6.48-.36-10.96Z" transform="translate(199.654 411.345) rotate(-160.294)" fill="#333"/>
  <path id="パス_794" data-name="パス 794" d="M24.648-28.353H34.32v15.522A12.934,12.934,0,0,1,30.4-3.354Q26.559.39,17.472.39q-9.2,0-12.6-3.568a12.786,12.786,0,0,1-3.315-9.38v-15.8h9.672v15.171a12.5,12.5,0,0,0,.254,2.788,3.564,3.564,0,0,0,1.638,2.009,8.187,8.187,0,0,0,4.465.936A9.711,9.711,0,0,0,22.5-8.4a3.715,3.715,0,0,0,1.853-2.126,12.713,12.713,0,0,0,.292-3Z" transform="translate(166.907 400.867) rotate(-154.479)" fill="#333"/>
  <path id="パス_795" data-name="パス 795" d="M22.977-19.5q-4.4-.222-6.512-.259V-7.1q2.146-.037,6.512-.259V0H1.48V-7.363q4.255.222,6.475.259V-19.758q-2.22.037-6.475.259v-7.363h21.5Z" transform="matrix(-0.852, -0.523, 0.523, -0.852, 133.678, 387.057)" fill="#333"/>
  <path id="パス_796" data-name="パス 796" d="M18.72.39Q9.906.39,5.733-3.354T1.56-14.04q0-6.981,4.173-11.037T18.72-29.133q12.324,0,16.5,8.463a64.922,64.922,0,0,0-8.229,3.627A6.977,6.977,0,0,0,23.42-20.28a12.428,12.428,0,0,0-4.973-1.053q-3.744,0-5.577,1.97a6.859,6.859,0,0,0-1.833,4.856,6.887,6.887,0,0,0,1.97,5.09q1.969,1.969,6.026,1.969A10.529,10.529,0,0,0,24.18-8.522a6.338,6.338,0,0,0,2.808-3.413q3.2,1.716,8.19,3.861a11.6,11.6,0,0,1-6.513,6.591A25.951,25.951,0,0,1,18.72.39Z" transform="translate(113.254 372.83) rotate(-141.224)" fill="#333"/>
  <path id="パス_797" data-name="パス 797" d="M22.977-19.5q-4.4-.222-6.512-.259V-7.1q2.146-.037,6.512-.259V0H1.48V-7.363q4.255.222,6.475.259V-19.758q-2.22.037-6.475.259v-7.363h21.5Z" transform="translate(83.901 351.568) rotate(-132.651)" fill="#333"/>
  <path id="パス_798" data-name="パス 798" d="M14.508-7.683Q16.731-7.722,25.974-8q1.17-.039,2.73-.117t3.471-.117a31.739,31.739,0,0,0-.332,3.666Q31.785-2.73,31.785,0H1.872V-8.7q2.145-1.209,4.68-2.984T13.1-16.341q3.744-2.73,5.421-3.9-3.081.039-12.363.429-3.2.156-4.29.195,0-2.886-.058-4.836T1.56-28.314H31.785v8.736q-2.067,1.365-7.644,5.3Q17.9-9.828,14.508-7.683Z" transform="translate(68.515 332.841) rotate(-123.212)" fill="#333"/>
  <g id="グループ_35" data-name="グループ 35">
    <g id="グループ_34" data-name="グループ 34" clip-path="url(#clip-path)">
      <path id="パス_799" data-name="パス 799" d="M36.075-26.862,38.961,0H29.378l-.592-19.166L25.086,0H15.392L11.618-19.018,11.063,0H1.48L4.366-26.862h12.58l3.219,17.5,2.812-17.5Z" transform="translate(48.504 307.758) rotate(-109.76)" fill="#333"/>
      <text id="_3" data-name=" " transform="translate(35.449 267.716) rotate(-100.701)" fill="#333" font-size="37" font-family="DelaGothicOne-Regular, Dela Gothic One"><tspan x="0" y="0"> </tspan></text>
      <path id="パス_800" data-name="パス 800" d="M33.76-29.08v14.12q0,7.48-3.86,11.42T17.68.4A27.015,27.015,0,0,1,8.82-1,28.422,28.422,0,0,1,1.6-4.64Q2.36-7.12,2.84-9.4a42.464,42.464,0,0,0,.72-5,27.862,27.862,0,0,0,7.6,4.6A19.23,19.23,0,0,0,17.8-8.52q3.28,0,4.68-1.48t1.44-5.08v-3.04q0-6.48-.36-10.96Z" transform="matrix(-0.06, -0.998, 0.998, -0.06, 36.298, 261.527)" fill="#333"/>
      <path id="パス_801" data-name="パス 801" d="M24.648-28.353H34.32v15.522A12.934,12.934,0,0,1,30.4-3.354Q26.559.39,17.472.39q-9.2,0-12.6-3.568a12.786,12.786,0,0,1-3.315-9.38v-15.8h9.672v15.171a12.5,12.5,0,0,0,.254,2.788,3.564,3.564,0,0,0,1.638,2.009,8.187,8.187,0,0,0,4.465.936A9.711,9.711,0,0,0,22.5-8.4a3.715,3.715,0,0,0,1.853-2.126,12.713,12.713,0,0,0,.292-3Z" transform="translate(32.883 229.012) rotate(-81.75)" fill="#333"/>
      <path id="パス_802" data-name="パス 802" d="M22.977-19.5q-4.4-.222-6.512-.259V-7.1q2.146-.037,6.512-.259V0H1.48V-7.363q4.255.222,6.475.259V-19.758q-2.22.037-6.475.259v-7.363h21.5Z" transform="translate(36.076 194.487) rotate(-70.735)" fill="#333"/>
    </g>
  </g>
  <path id="パス_803" data-name="パス 803" d="M18.72.39Q9.906.39,5.733-3.354T1.56-14.04q0-6.981,4.173-11.037T18.72-29.133q12.324,0,16.5,8.463a64.922,64.922,0,0,0-8.229,3.627A6.977,6.977,0,0,0,23.42-20.28a12.428,12.428,0,0,0-4.973-1.053q-3.744,0-5.577,1.97a6.859,6.859,0,0,0-1.833,4.856,6.887,6.887,0,0,0,1.97,5.09q1.969,1.969,6.026,1.969A10.529,10.529,0,0,0,24.18-8.522a6.338,6.338,0,0,0,2.808-3.413q3.2,1.716,8.19,3.861a11.6,11.6,0,0,1-6.513,6.591A25.951,25.951,0,0,1,18.72.39Z" transform="matrix(0.506, -0.863, 0.863, 0.506, 45.003, 172.433)" fill="#333"/>
  <path id="パス_804" data-name="パス 804" d="M22.977-19.5q-4.4-.222-6.512-.259V-7.1q2.146-.037,6.512-.259V0H1.48V-7.363q4.255.222,6.475.259V-19.758q-2.22.037-6.475.259v-7.363h21.5Z" transform="translate(61.662 140.735) rotate(-49.378)" fill="#333"/>
  <path id="パス_805" data-name="パス 805" d="M14.508-7.683Q16.731-7.722,25.974-8q1.17-.039,2.73-.117t3.471-.117a31.739,31.739,0,0,0-.332,3.666Q31.785-2.73,31.785,0H1.872V-8.7q2.145-1.209,4.68-2.984T13.1-16.341q3.744-2.73,5.421-3.9-3.081.039-12.363.429-3.2.156-4.29.195,0-2.886-.058-4.836T1.56-28.314H31.785v8.736q-2.067,1.365-7.644,5.3Q17.9-9.828,14.508-7.683Z" transform="translate(78.783 123.177) rotate(-40.897)" fill="#333"/>
  <path id="パス_806" data-name="パス 806" d="M36.075-26.862,38.961,0H29.378l-.592-19.166L25.086,0H15.392L11.618-19.018,11.063,0H1.48L4.366-26.862h12.58l3.219,17.5,2.812-17.5Z" transform="matrix(0.85, -0.527, 0.527, 0.85, 102.091, 99.754)" fill="#333"/>
  <text id="_4" data-name=" " transform="translate(139.234 77.603) rotate(-26.794)" fill="#333" font-size="37" font-family="DelaGothicOne-Regular, Dela Gothic One"><tspan x="0" y="0"> </tspan></text>
  <path id="パス_807" data-name="パス 807" d="M33.76-29.08v14.12q0,7.48-3.86,11.42T17.68.4A27.015,27.015,0,0,1,8.82-1,28.422,28.422,0,0,1,1.6-4.64Q2.36-7.12,2.84-9.4a42.464,42.464,0,0,0,.72-5,27.862,27.862,0,0,0,7.6,4.6A19.23,19.23,0,0,0,17.8-8.52q3.28,0,4.68-1.48t1.44-5.08v-3.04q0-6.48-.36-10.96Z" transform="matrix(0.92, -0.392, 0.392, 0.92, 146.599, 76.705)" fill="#333"/>
  <path id="パス_808" data-name="パス 808" d="M24.648-28.353H34.32v15.522A12.934,12.934,0,0,1,30.4-3.354Q26.559.39,17.472.39q-9.2,0-12.6-3.568a12.786,12.786,0,0,1-3.315-9.38v-15.8h9.672v15.171a12.5,12.5,0,0,0,.254,2.788,3.564,3.564,0,0,0,1.638,2.009,8.187,8.187,0,0,0,4.465.936A9.711,9.711,0,0,0,22.5-8.4a3.715,3.715,0,0,0,1.853-2.126,12.713,12.713,0,0,0,.292-3Z" transform="translate(177.866 62.237) rotate(-17.621)" fill="#333"/>
  <path id="パス_809" data-name="パス 809" d="M22.977-19.5q-4.4-.222-6.512-.259V-7.1q2.146-.037,6.512-.259V0H1.48V-7.363q4.255.222,6.475.259V-19.758q-2.22.037-6.475.259v-7.363h21.5Z" transform="translate(212.055 49.462) rotate(-13.479)" fill="#333"/>
  <g id="グループ_37" data-name="グループ 37">
    <g id="グループ_36" data-name="グループ 36" clip-path="url(#clip-path)">
      <path id="パス_810" data-name="パス 810" d="M18.72.39Q9.906.39,5.733-3.354T1.56-14.04q0-6.981,4.173-11.037T18.72-29.133q12.324,0,16.5,8.463a64.922,64.922,0,0,0-8.229,3.627A6.977,6.977,0,0,0,23.42-20.28a12.428,12.428,0,0,0-4.973-1.053q-3.744,0-5.577,1.97a6.859,6.859,0,0,0-1.833,4.856,6.887,6.887,0,0,0,1.97,5.09q1.969,1.969,6.026,1.969A10.529,10.529,0,0,0,24.18-8.522a6.338,6.338,0,0,0,2.808-3.413q3.2,1.716,8.19,3.861a11.6,11.6,0,0,1-6.513,6.591A25.951,25.951,0,0,1,18.72.39Z" transform="translate(237.607 45.182) rotate(-9.729)" fill="#333"/>
      <path id="パス_811" data-name="パス 811" d="M22.977-19.5q-4.4-.222-6.512-.259V-7.1q2.146-.037,6.512-.259V0H1.48V-7.363q4.255.222,6.475.259V-19.758q-2.22.037-6.475.259v-7.363h21.5Z" transform="translate(274.336 37.016) rotate(-6.324)" fill="#333"/>
      <path id="パス_812" data-name="パス 812" d="M14.508-7.683Q16.731-7.722,25.974-8q1.17-.039,2.73-.117t3.471-.117a31.739,31.739,0,0,0-.332,3.666Q31.785-2.73,31.785,0H1.872V-8.7q2.145-1.209,4.68-2.984T13.1-16.341q3.744-2.73,5.421-3.9-3.081.039-12.363.429-3.2.156-4.29.195,0-2.886-.058-4.836T1.56-28.314H31.785v8.736q-2.067,1.365-7.644,5.3Q17.9-9.828,14.508-7.683Z" transform="translate(300.464 36.008) rotate(-3.33)" fill="#333"/>
      <path id="パス_813" data-name="パス 813" d="M36.075-26.862,38.961,0H29.378l-.592-19.166L25.086,0H15.392L11.618-19.018,11.063,0H1.48L4.366-26.862h12.58l3.219,17.5,2.812-17.5Z" transform="translate(334.581 31.763) rotate(0.485)" fill="#333"/>
      <text id="_5" data-name=" " transform="translate(378.604 32.404) rotate(2.606)" fill="#333" font-size="37" font-family="DelaGothicOne-Regular, Dela Gothic One"><tspan x="0" y="0"> </tspan></text>
      <path id="パス_765" data-name="パス 765" d="M33.76-29.08v14.12q0,7.48-3.86,11.42T17.68.4A27.015,27.015,0,0,1,8.82-1,28.422,28.422,0,0,1,1.6-4.64Q2.36-7.12,2.84-9.4a42.464,42.464,0,0,0,.72-5,27.862,27.862,0,0,0,7.6,4.6A19.23,19.23,0,0,0,17.8-8.52q3.28,0,4.68-1.48t1.44-5.08v-3.04q0-6.48-.36-10.96Z" transform="translate(385.976 35.475) rotate(4.676)" fill="#333"/>
      <path id="パス_766" data-name="パス 766" d="M24.648-28.353H34.32v15.522A12.934,12.934,0,0,1,30.4-3.354Q26.559.39,17.472.39q-9.2,0-12.6-3.568a12.786,12.786,0,0,1-3.315-9.38v-15.8h9.672v15.171a12.5,12.5,0,0,0,.254,2.788,3.564,3.564,0,0,0,1.638,2.009,8.187,8.187,0,0,0,4.465.936A9.711,9.711,0,0,0,22.5-8.4a3.715,3.715,0,0,0,1.853-2.126,12.713,12.713,0,0,0,.292-3Z" transform="translate(420.916 37.251) rotate(8.361)" fill="#333"/>
      <path id="パス_767" data-name="パス 767" d="M22.977-19.5q-4.4-.222-6.512-.259V-7.1q2.146-.037,6.512-.259V0H1.48V-7.363q4.255.222,6.475.259V-19.758q-2.22.037-6.475.259v-7.363h21.5Z" transform="matrix(0.978, 0.206, -0.206, 0.978, 457.393, 40.71)" fill="#333"/>
    </g>
  </g>
  <path id="パス_768" data-name="パス 768" d="M18.72.39Q9.906.39,5.733-3.354T1.56-14.04q0-6.981,4.173-11.037T18.72-29.133q12.324,0,16.5,8.463a64.922,64.922,0,0,0-8.229,3.627A6.977,6.977,0,0,0,23.42-20.28a12.428,12.428,0,0,0-4.973-1.053q-3.744,0-5.577,1.97a6.859,6.859,0,0,0-1.833,4.856,6.887,6.887,0,0,0,1.97,5.09q1.969,1.969,6.026,1.969A10.529,10.529,0,0,0,24.18-8.522a6.338,6.338,0,0,0,2.808-3.413q3.2,1.716,8.19,3.861a11.6,11.6,0,0,1-6.513,6.591A25.951,25.951,0,0,1,18.72.39Z" transform="matrix(0.962, 0.274, -0.274, 0.962, 482.275, 47.731)" fill="#333"/>
  <path id="パス_769" data-name="パス 769" d="M22.977-19.5q-4.4-.222-6.512-.259V-7.1q2.146-.037,6.512-.259V0H1.48V-7.363q4.255.222,6.475.259V-19.758q-2.22.037-6.475.259v-7.363h21.5Z" transform="translate(518.618 56.172) rotate(20.456)" fill="#333"/>
  <path id="パス_770" data-name="パス 770" d="M14.508-7.683Q16.731-7.722,25.974-8q1.17-.039,2.73-.117t3.471-.117a31.739,31.739,0,0,0-.332,3.666Q31.785-2.73,31.785,0H1.872V-8.7q2.145-1.209,4.68-2.984T13.1-16.341q3.744-2.73,5.421-3.9-3.081.039-12.363.429-3.2.156-4.29.195,0-2.886-.058-4.836T1.56-28.314H31.785v8.736q-2.067,1.365-7.644,5.3Q17.9-9.828,14.508-7.683Z" transform="translate(541.912 66.7) rotate(25.423)" fill="#333"/>
  <path id="パス_771" data-name="パス 771" d="M36.075-26.862,38.961,0H29.378l-.592-19.166L25.086,0H15.392L11.618-19.018,11.063,0H1.48L4.366-26.862h12.58l3.219,17.5,2.812-17.5Z" transform="matrix(0.839, 0.545, -0.545, 0.839, 573.103, 78.724)" fill="#333"/>
  <text id="_6" data-name=" " transform="translate(608.704 102.843) rotate(38.963)" fill="#333" font-size="37" font-family="DelaGothicOne-Regular, Dela Gothic One"><tspan x="0" y="0"> </tspan></text>
  <path id="パス_772" data-name="パス 772" d="M33.76-29.08v14.12q0,7.48-3.86,11.42T17.68.4A27.015,27.015,0,0,1,8.82-1,28.422,28.422,0,0,1,1.6-4.64Q2.36-7.12,2.84-9.4a42.464,42.464,0,0,0,.72-5,27.862,27.862,0,0,0,7.6,4.6A19.23,19.23,0,0,0,17.8-8.52q3.28,0,4.68-1.48t1.44-5.08v-3.04q0-6.48-.36-10.96Z" transform="matrix(0.712, 0.702, -0.702, 0.712, 612.283, 108.567)" fill="#333"/>
  <path id="パス_773" data-name="パス 773" d="M24.648-28.353H34.32v15.522A12.934,12.934,0,0,1,30.4-3.354Q26.559.39,17.472.39q-9.2,0-12.6-3.568a12.786,12.786,0,0,1-3.315-9.38v-15.8h9.672v15.171a12.5,12.5,0,0,0,.254,2.788,3.564,3.564,0,0,0,1.638,2.009,8.187,8.187,0,0,0,4.465.936A9.711,9.711,0,0,0,22.5-8.4a3.715,3.715,0,0,0,1.853-2.126,12.713,12.713,0,0,0,.292-3Z" transform="translate(636.741 130.652) rotate(55.469)" fill="#333"/>
  <g id="グループ_39" data-name="グループ 39">
    <g id="グループ_38" data-name="グループ 38" clip-path="url(#clip-path)">
      <path id="パス_774" data-name="パス 774" d="M22.977-19.5q-4.4-.222-6.512-.259V-7.1q2.146-.037,6.512-.259V0H1.48V-7.363q4.255.222,6.475.259V-19.758q-2.22.037-6.475.259v-7.363h21.5Z" transform="translate(657.908 158.22) rotate(66.162)" fill="#333"/>
      <path id="パス_775" data-name="パス 775" d="M18.72.39Q9.906.39,5.733-3.354T1.56-14.04q0-6.981,4.173-11.037T18.72-29.133q12.324,0,16.5,8.463a64.922,64.922,0,0,0-8.229,3.627A6.977,6.977,0,0,0,23.42-20.28a12.428,12.428,0,0,0-4.973-1.053q-3.744,0-5.577,1.97a6.859,6.859,0,0,0-1.833,4.856,6.887,6.887,0,0,0,1.97,5.09q1.969,1.969,6.026,1.969A10.529,10.529,0,0,0,24.18-8.522a6.338,6.338,0,0,0,2.808-3.413q3.2,1.716,8.19,3.861a11.6,11.6,0,0,1-6.513,6.591A25.951,25.951,0,0,1,18.72.39Z" transform="translate(666.469 180.339) rotate(77.429)" fill="#333"/>
      <path id="パス_776" data-name="パス 776" d="M22.977-19.5q-4.4-.222-6.512-.259V-7.1q2.146-.037,6.512-.259V0H1.48V-7.363q4.255.222,6.475.259V-19.758q-2.22.037-6.475.259v-7.363h21.5Z" transform="matrix(0.032, 0.999, -0.999, 0.032, 675.866, 214.758)" fill="#333"/>
      <path id="パス_777" data-name="パス 777" d="M14.508-7.683Q16.731-7.722,25.974-8q1.17-.039,2.73-.117t3.471-.117a31.739,31.739,0,0,0-.332,3.666Q31.785-2.73,31.785,0H1.872V-8.7q2.145-1.209,4.68-2.984T13.1-16.341q3.744-2.73,5.421-3.9-3.081.039-12.363.429-3.2.156-4.29.195,0-2.886-.058-4.836T1.56-28.314H31.785v8.736q-2.067,1.365-7.644,5.3Q17.9-9.828,14.508-7.683Z" transform="matrix(-0.14, 0.99, -0.99, -0.14, 675.281, 238.884)" fill="#333"/>
      <path id="パス_778" data-name="パス 778" d="M36.075-26.862,38.961,0H29.378l-.592-19.166L25.086,0H15.392L11.618-19.018,11.063,0H1.48L4.366-26.862h12.58l3.219,17.5,2.812-17.5Z" transform="matrix(-0.37, 0.929, -0.929, -0.37, 673.779, 270.862)" fill="#333"/>
    </g>
  </g>
  <text id="_7" data-name=" " transform="translate(657.016 309.564) rotate(120.653)" fill="#333" font-size="37" font-family="DelaGothicOne-Regular, Dela Gothic One"><tspan x="0" y="0"> </tspan></text>
</svg>
