<svg id="グループ_312" data-name="グループ 312" xmlns="http://www.w3.org/2000/svg" xmlns:xlink="http://www.w3.org/1999/xlink" width="1069.79" height="712.879" viewBox="0 0 1069.79 712.879">
  <defs>
    <clipPath id="clip-path">
      <rect id="長方形_6" data-name="長方形 6" width="1069.79" height="712.879" fill="none"/>
    </clipPath>
    <clipPath id="clip-path-2">
      <path id="パス_714" data-name="パス 714" d="M0,0H1069.79V712.879H0Z" fill="none"/>
    </clipPath>
  </defs>
  <g id="グループ_9" data-name="グループ 9">
    <g id="グループ_8" data-name="グループ 8" clip-path="url(#clip-path)">
      <path id="パス_701" data-name="パス 701" d="M37.98-32.715V-16.83q0,8.415-4.342,12.847T19.89.45A30.392,30.392,0,0,1,9.923-1.125,31.974,31.974,0,0,1,1.8-5.22q.855-2.79,1.4-5.355a47.772,47.772,0,0,0,.81-5.625,31.345,31.345,0,0,0,8.55,5.175,21.634,21.634,0,0,0,7.47,1.44q3.69,0,5.265-1.665t1.62-5.715v-3.42q0-7.29-.4-12.33Z" transform="translate(534.736 38.873) rotate(1.209)" fill="#333"/>
      <path id="パス_700" data-name="パス 700" d="M29.072-33.442H40.48v18.308A15.256,15.256,0,0,1,35.857-3.956Q31.326.46,20.608.46,9.752.46,5.75-3.749T1.84-14.812v-18.63H13.248v17.894a14.746,14.746,0,0,0,.3,3.289A4.2,4.2,0,0,0,15.479-9.89q1.633,1.1,5.267,1.1a11.454,11.454,0,0,0,5.8-1.127,4.381,4.381,0,0,0,2.185-2.507,15,15,0,0,0,.345-3.542Z" transform="matrix(0.998, 0.066, -0.066, 0.998, 575.25, 40.693)" fill="#333"/>
      <path id="パス_699" data-name="パス 699" d="M28.566-24.242q-5.474-.276-8.1-.322V-8.832q2.668-.046,8.1-.322V0H1.84V-9.154q5.29.276,8.05.322V-24.564q-2.76.046-8.05.322V-33.4H28.566Z" transform="translate(617.383 43.583) rotate(6.148)" fill="#333"/>
      <path id="パス_702" data-name="パス 702" d="M22.08.46q-10.4,0-15.318-4.416T1.84-16.56q0-8.234,4.922-13.018T22.08-34.362q14.536,0,19.458,9.982A76.575,76.575,0,0,0,31.832-20.1a8.229,8.229,0,0,0-4.209-3.818,14.658,14.658,0,0,0-5.865-1.242q-4.416,0-6.578,2.323a8.09,8.09,0,0,0-2.162,5.727,8.123,8.123,0,0,0,2.323,6q2.323,2.323,7.107,2.323a12.419,12.419,0,0,0,6.072-1.265,7.476,7.476,0,0,0,3.312-4.025q3.772,2.024,9.66,4.554A13.687,13.687,0,0,1,33.81-1.748,30.609,30.609,0,0,1,22.08.46Z" transform="translate(647.491 46.664) rotate(8.707)" fill="#333"/>
    </g>
  </g>
  <path id="パス_703" data-name="パス 703" d="M28.566-24.242q-5.474-.276-8.1-.322V-8.832q2.668-.046,8.1-.322V0H1.84V-9.154q5.29.276,8.05.322V-24.564q-2.76.046-8.05.322V-33.4H28.566Z" transform="translate(690.226 53.347) rotate(11.451)" fill="#333"/>
  <path id="パス_704" data-name="パス 704" d="M16.74-8.865q2.565-.045,13.23-.36,1.35-.045,3.15-.135T37.125-9.5a36.621,36.621,0,0,0-.382,4.23Q36.675-3.15,36.675,0H2.16V-10.035q2.475-1.4,5.4-3.443t7.56-5.378q4.32-3.15,6.255-4.5-3.555.045-14.265.5-3.69.18-4.95.225,0-3.33-.068-5.58T1.8-32.67H36.675v10.08q-2.385,1.575-8.82,6.12Q20.655-11.34,16.74-8.865Z" transform="matrix(0.969, 0.247, -0.247, 0.969, 720.103, 58.24)" fill="#333"/>
  <path id="パス_705" data-name="パス 705" d="M44.85-33.4,48.438,0H36.524l-.736-23.828L31.188,0H19.136L14.444-23.644,13.754,0H1.84L5.428-33.4h15.64l4,21.758,3.5-21.758Z" transform="matrix(0.95, 0.313, -0.313, 0.95, 758.19, 68.72)" fill="#333"/>
  <text id="_" data-name=" " transform="translate(805.653 84.915) rotate(21.183)" fill="#333" font-size="46" font-family="DelaGothicOne-Regular, Dela Gothic One"><tspan x="0" y="0"> </tspan></text>
  <path id="パス_706" data-name="パス 706" d="M37.98-32.715V-16.83q0,8.415-4.342,12.847T19.89.45A30.392,30.392,0,0,1,9.923-1.125,31.974,31.974,0,0,1,1.8-5.22q.855-2.79,1.4-5.355a47.772,47.772,0,0,0,.81-5.625,31.345,31.345,0,0,0,8.55,5.175,21.634,21.634,0,0,0,7.47,1.44q3.69,0,5.265-1.665t1.62-5.715v-3.42q0-7.29-.4-12.33Z" transform="translate(814.506 86.864) rotate(23.839)" fill="#333"/>
  <path id="パス_707" data-name="パス 707" d="M29.072-33.442H40.48v18.308A15.256,15.256,0,0,1,35.857-3.956Q31.326.46,20.608.46,9.752.46,5.75-3.749T1.84-14.812v-18.63H13.248v17.894a14.746,14.746,0,0,0,.3,3.289A4.2,4.2,0,0,0,15.479-9.89q1.633,1.1,5.267,1.1a11.454,11.454,0,0,0,5.8-1.127,4.381,4.381,0,0,0,2.185-2.507,15,15,0,0,0,.345-3.542Z" transform="translate(850.987 103.966) rotate(28.762)" fill="#333"/>
  <path id="パス_708" data-name="パス 708" d="M28.566-24.242q-5.474-.276-8.1-.322V-8.832q2.668-.046,8.1-.322V0H1.84V-9.154q5.29.276,8.05.322V-24.564q-2.76.046-8.05.322V-33.4H28.566Z" transform="matrix(0.832, 0.555, -0.555, 0.832, 887.618, 124.296)" fill="#333"/>
  <path id="パス_709" data-name="パス 709" d="M22.08.46q-10.4,0-15.318-4.416T1.84-16.56q0-8.234,4.922-13.018T22.08-34.362q14.536,0,19.458,9.982A76.575,76.575,0,0,0,31.832-20.1a8.229,8.229,0,0,0-4.209-3.818,14.658,14.658,0,0,0-5.865-1.242q-4.416,0-6.578,2.323a8.09,8.09,0,0,0-2.162,5.727,8.123,8.123,0,0,0,2.323,6q2.323,2.323,7.107,2.323a12.419,12.419,0,0,0,6.072-1.265,7.476,7.476,0,0,0,3.312-4.025q3.772,2.024,9.66,4.554A13.687,13.687,0,0,1,33.81-1.748,30.609,30.609,0,0,1,22.08.46Z" transform="translate(912.694 140.53) rotate(39.373)" fill="#333"/>
  <path id="パス_710" data-name="パス 710" d="M28.566-24.242q-5.474-.276-8.1-.322V-8.832q2.668-.046,8.1-.322V0H1.84V-9.154q5.29.276,8.05.322V-24.564q-2.76.046-8.05.322V-33.4H28.566Z" transform="matrix(0.697, 0.717, -0.717, 0.697, 945.593, 167.888)" fill="#333"/>
  <path id="パス_711" data-name="パス 711" d="M16.74-8.865q2.565-.045,13.23-.36,1.35-.045,3.15-.135T37.125-9.5a36.621,36.621,0,0,0-.382,4.23Q36.675-3.15,36.675,0H2.16V-10.035q2.475-1.4,5.4-3.443t7.56-5.378q4.32-3.15,6.255-4.5-3.555.045-14.265.5-3.69.18-4.95.225,0-3.33-.068-5.58T1.8-32.67H36.675v10.08q-2.385,1.575-8.82,6.12Q20.655-11.34,16.74-8.865Z" transform="matrix(0.605, 0.796, -0.796, 0.605, 967.365, 188.351)" fill="#333"/>
  <path id="パス_712" data-name="パス 712" d="M44.85-33.4,48.438,0H36.524l-.736-23.828L31.188,0H19.136L14.444-23.644,13.754,0H1.84L5.428-33.4h15.64l4,21.758,3.5-21.758Z" transform="translate(990.577 219.516) rotate(62.535)" fill="#333"/>
  <text id="_2" data-name=" " transform="translate(1012.427 264.098) rotate(69.381)" fill="#333" font-size="46" font-family="DelaGothicOne-Regular, Dela Gothic One"><tspan x="0" y="0"> </tspan></text>
  <g id="グループ_11" data-name="グループ 11">
    <g id="マスクグループ_68" data-name="マスクグループ 68" clip-path="url(#clip-path-2)">
      <path id="パス_716" data-name="パス 716" d="M37.98-32.715V-16.83q0,8.415-4.342,12.847T19.89.45A30.392,30.392,0,0,1,9.923-1.125,31.974,31.974,0,0,1,1.8-5.22q.855-2.79,1.4-5.355a47.772,47.772,0,0,0,.81-5.625,31.345,31.345,0,0,0,8.55,5.175,21.634,21.634,0,0,0,7.47,1.44q3.69,0,5.265-1.665t1.62-5.715v-3.42q0-7.29-.4-12.33Z" transform="matrix(0.256, 0.967, -0.967, 0.256, 1017.183, 271.543)" fill="#333"/>
      <path id="パス_715" data-name="パス 715" d="M29.072-33.442H40.48v18.308A15.256,15.256,0,0,1,35.857-3.956Q31.326.46,20.608.46,9.752.46,5.75-3.749T1.84-14.812v-18.63H13.248v17.894a14.746,14.746,0,0,0,.3,3.289A4.2,4.2,0,0,0,15.479-9.89q1.633,1.1,5.267,1.1a11.454,11.454,0,0,0,5.8-1.127,4.381,4.381,0,0,0,2.185-2.507,15,15,0,0,0,.345-3.542Z" transform="matrix(0.095, 0.995, -0.995, 0.095, 1026.511, 310.181)" fill="#333"/>
      <path id="パス_717" data-name="パス 717" d="M28.566-24.242q-5.474-.276-8.1-.322V-8.832q2.668-.046,8.1-.322V0H1.84V-9.154q5.29.276,8.05.322V-24.564q-2.76.046-8.05.322V-33.4H28.566Z" transform="translate(1030.105 351.577) rotate(92.217)" fill="#333"/>
      <path id="パス_718" data-name="パス 718" d="M22.08.46q-10.4,0-15.318-4.416T1.84-16.56q0-8.234,4.922-13.018T22.08-34.362q14.536,0,19.458,9.982A76.575,76.575,0,0,0,31.832-20.1a8.229,8.229,0,0,0-4.209-3.818,14.658,14.658,0,0,0-5.865-1.242q-4.416,0-6.578,2.323a8.09,8.09,0,0,0-2.162,5.727,8.123,8.123,0,0,0,2.323,6q2.323,2.323,7.107,2.323a12.419,12.419,0,0,0,6.072-1.265,7.476,7.476,0,0,0,3.312-4.025q3.772,2.024,9.66,4.554A13.687,13.687,0,0,1,33.81-1.748,30.609,30.609,0,0,1,22.08.46Z" transform="translate(1029.523 381.17) rotate(100.321)" fill="#333"/>
      <path id="パス_719" data-name="パス 719" d="M28.566-24.242q-5.474-.276-8.1-.322V-8.832q2.668-.046,8.1-.322V0H1.84V-9.154q5.29.276,8.05.322V-24.564q-2.76.046-8.05.322V-33.4H28.566Z" transform="translate(1021.514 422.946) rotate(108.835)" fill="#333"/>
    </g>
  </g>
  <path id="パス_713" data-name="パス 713" d="M16.74-8.865q2.565-.045,13.23-.36,1.35-.045,3.15-.135T37.125-9.5a36.621,36.621,0,0,0-.382,4.23Q36.675-3.15,36.675,0H2.16V-10.035q2.475-1.4,5.4-3.443t7.56-5.378q4.32-3.15,6.255-4.5-3.555.045-14.265.5-3.69.18-4.95.225,0-3.33-.068-5.58T1.8-32.67H36.675v10.08q-2.385,1.575-8.82,6.12Q20.655-11.34,16.74-8.865Z" transform="translate(1013.23 451.525) rotate(116.933)" fill="#333"/>
  <path id="パス_720" data-name="パス 720" d="M44.85-33.4,48.438,0H36.524l-.736-23.828L31.188,0H19.136L14.444-23.644,13.754,0H1.84L5.428-33.4h15.64l4,21.758,3.5-21.758Z" transform="matrix(-0.599, 0.801, -0.801, -0.599, 995.172, 485.948)" fill="#333"/>
  <text id="_3" data-name=" " transform="matrix(-0.678, 0.735, -0.735, -0.678, 964.562, 525.153)" fill="#333" font-size="46" font-family="DelaGothicOne-Regular, Dela Gothic One"><tspan x="0" y="0"> </tspan></text>
  <path id="パス_721" data-name="パス 721" d="M37.98-32.715V-16.83q0,8.415-4.342,12.847T19.89.45A30.392,30.392,0,0,1,9.923-1.125,31.974,31.974,0,0,1,1.8-5.22q.855-2.79,1.4-5.355a47.772,47.772,0,0,0,.81-5.625,31.345,31.345,0,0,0,8.55,5.175,21.634,21.634,0,0,0,7.47,1.44q3.69,0,5.265-1.665t1.62-5.715v-3.42q0-7.29-.4-12.33Z" transform="translate(959.821 532.704) rotate(137.281)" fill="#333"/>
  <path id="パス_722" data-name="パス 722" d="M29.072-33.442H40.48v18.308A15.256,15.256,0,0,1,35.857-3.956Q31.326.46,20.608.46,9.752.46,5.75-3.749T1.84-14.812v-18.63H13.248v17.894a14.746,14.746,0,0,0,.3,3.289A4.2,4.2,0,0,0,15.479-9.89q1.633,1.1,5.267,1.1a11.454,11.454,0,0,0,5.8-1.127,4.381,4.381,0,0,0,2.185-2.507,15,15,0,0,0,.345-3.542Z" transform="translate(929.764 559.152) rotate(144.081)" fill="#333"/>
  <path id="パス_723" data-name="パス 723" d="M28.566-24.242q-5.474-.276-8.1-.322V-8.832q2.668-.046,8.1-.322V0H1.84V-9.154q5.29.276,8.05.322V-24.564q-2.76.046-8.05.322V-33.4H28.566Z" transform="matrix(-0.86, 0.511, -0.511, -0.86, 895.702, 583.484)" fill="#333"/>
  <path id="パス_724" data-name="パス 724" d="M22.08.46q-10.4,0-15.318-4.416T1.84-16.56q0-8.234,4.922-13.018T22.08-34.362q14.536,0,19.458,9.982A76.575,76.575,0,0,0,31.832-20.1a8.229,8.229,0,0,0-4.209-3.818,14.658,14.658,0,0,0-5.865-1.242q-4.416,0-6.578,2.323a8.09,8.09,0,0,0-2.162,5.727,8.123,8.123,0,0,0,2.323,6q2.323,2.323,7.107,2.323a12.419,12.419,0,0,0,6.072-1.265,7.476,7.476,0,0,0,3.312-4.025q3.772,2.024,9.66,4.554A13.687,13.687,0,0,1,33.81-1.748,30.609,30.609,0,0,1,22.08.46Z" transform="matrix(-0.898, 0.44, -0.44, -0.898, 870.041, 599.037)" fill="#333"/>
  <path id="パス_725" data-name="パス 725" d="M28.566-24.242q-5.474-.276-8.1-.322V-8.832q2.668-.046,8.1-.322V0H1.84V-9.154q5.29.276,8.05.322V-24.564q-2.76.046-8.05.322V-33.4H28.566Z" transform="translate(831.249 617.762) rotate(158.018)" fill="#333"/>
  <path id="パス_726" data-name="パス 726" d="M16.74-8.865q2.565-.045,13.23-.36,1.35-.045,3.15-.135T37.125-9.5a36.621,36.621,0,0,0-.382,4.23Q36.675-3.15,36.675,0H2.16V-10.035q2.475-1.4,5.4-3.443t7.56-5.378q4.32-3.15,6.255-4.5-3.555.045-14.265.5-3.69.18-4.95.225,0-3.33-.068-5.58T1.8-32.67H36.675v10.08q-2.385,1.575-8.82,6.12Q20.655-11.34,16.74-8.865Z" transform="translate(803.68 630.116) rotate(161.516)" fill="#333"/>
  <path id="パス_727" data-name="パス 727" d="M44.85-33.4,48.438,0H36.524l-.736-23.828L31.188,0H19.136L14.444-23.644,13.754,0H1.84L5.428-33.4h15.64l4,21.758,3.5-21.758Z" transform="matrix(-0.968, 0.25, -0.25, -0.968, 765.959, 641.851)" fill="#333"/>
  <text id="_4" data-name=" " transform="translate(717.203 653.979) rotate(167.952)" fill="#333" font-size="46" font-family="DelaGothicOne-Regular, Dela Gothic One"><tspan x="0" y="0"> </tspan></text>
  <g id="グループ_13" data-name="グループ 13">
    <g id="マスクグループ_69" data-name="マスクグループ 69" clip-path="url(#clip-path-2)">
      <path id="パス_730" data-name="パス 730" d="M37.98-32.715V-16.83q0,8.415-4.342,12.847T19.89.45A30.392,30.392,0,0,1,9.923-1.125,31.974,31.974,0,0,1,1.8-5.22q.855-2.79,1.4-5.355a47.772,47.772,0,0,0,.81-5.625,31.345,31.345,0,0,0,8.55,5.175,21.634,21.634,0,0,0,7.47,1.44q3.69,0,5.265-1.665t1.62-5.715v-3.42q0-7.29-.4-12.33Z" transform="translate(708.64 657.098) rotate(169.858)" fill="#333"/>
      <path id="パス_729" data-name="パス 729" d="M29.072-33.442H40.48v18.308A15.256,15.256,0,0,1,35.857-3.956Q31.326.46,20.608.46,9.752.46,5.75-3.749T1.84-14.812v-18.63H13.248v17.894a14.746,14.746,0,0,0,.3,3.289A4.2,4.2,0,0,0,15.479-9.89q1.633,1.1,5.267,1.1a11.454,11.454,0,0,0,5.8-1.127,4.381,4.381,0,0,0,2.185-2.507,15,15,0,0,0,.345-3.542Z" transform="matrix(-0.992, 0.125, -0.125, -0.992, 668.602, 663.264)" fill="#333"/>
      <path id="パス_731" data-name="パス 731" d="M28.566-24.242q-5.474-.276-8.1-.322V-8.832q2.668-.046,8.1-.322V0H1.84V-9.154q5.29.276,8.05.322V-24.564q-2.76.046-8.05.322V-33.4H28.566Z" transform="translate(626.689 668.409) rotate(175.258)" fill="#333"/>
      <path id="パス_732" data-name="パス 732" d="M22.08.46q-10.4,0-15.318-4.416T1.84-16.56q0-8.234,4.922-13.018T22.08-34.362q14.536,0,19.458,9.982A76.575,76.575,0,0,0,31.832-20.1a8.229,8.229,0,0,0-4.209-3.818,14.658,14.658,0,0,0-5.865-1.242q-4.416,0-6.578,2.323a8.09,8.09,0,0,0-2.162,5.727,8.123,8.123,0,0,0,2.323,6q2.323,2.323,7.107,2.323a12.419,12.419,0,0,0,6.072-1.265,7.476,7.476,0,0,0,3.312-4.025q3.772,2.024,9.66,4.554A13.687,13.687,0,0,1,33.81-1.748,30.609,30.609,0,0,1,22.08.46Z" transform="translate(596.525 671.044) rotate(177.593)" fill="#333"/>
      <path id="パス_733" data-name="パス 733" d="M28.566-24.242q-5.474-.276-8.1-.322V-8.832q2.668-.046,8.1-.322V0H1.84V-9.154q5.29.276,8.05.322V-24.564q-2.76.046-8.05.322V-33.4H28.566Z" transform="translate(553.21 672.657) rotate(179.515)" fill="#333"/>
      <path id="パス_734" data-name="パス 734" d="M16.74-8.865q2.565-.045,13.23-.36,1.35-.045,3.15-.135T37.125-9.5a36.621,36.621,0,0,0-.382,4.23Q36.675-3.15,36.675,0H2.16V-10.035q2.475-1.4,5.4-3.443t7.56-5.378q4.32-3.15,6.255-4.5-3.555.045-14.265.5-3.69.18-4.95.225,0-3.33-.068-5.58T1.8-32.67H36.675v10.08q-2.385,1.575-8.82,6.12Q20.655-11.34,16.74-8.865Z" transform="translate(522.902 673.927) rotate(-178.079)" fill="#333"/>
      <path id="パス_735" data-name="パス 735" d="M44.85-33.4,48.438,0H36.524l-.736-23.828L31.188,0H19.136L14.444-23.644,13.754,0H1.84L5.428-33.4h15.64l4,21.758,3.5-21.758Z" transform="translate(483.314 671.751) rotate(-175.244)" fill="#333"/>
      <text id="_5" data-name=" " transform="translate(433.24 667.236) rotate(-173.267)" fill="#333" font-size="46" font-family="DelaGothicOne-Regular, Dela Gothic One"><tspan x="0" y="0"> </tspan></text>
      <path id="パス_736" data-name="パス 736" d="M37.98-32.715V-16.83q0,8.415-4.342,12.847T19.89.45A30.392,30.392,0,0,1,9.923-1.125,31.974,31.974,0,0,1,1.8-5.22q.855-2.79,1.4-5.355a47.772,47.772,0,0,0,.81-5.625,31.345,31.345,0,0,0,8.55,5.175,21.634,21.634,0,0,0,7.47,1.44q3.69,0,5.265-1.665t1.62-5.715v-3.42q0-7.29-.4-12.33Z" transform="translate(424.085 667.409) rotate(-171.529)" fill="#333"/>
      <path id="パス_737" data-name="パス 737" d="M29.072-33.442H40.48v18.308A15.256,15.256,0,0,1,35.857-3.956Q31.326.46,20.608.46,9.752.46,5.75-3.749T1.84-14.812v-18.63H13.248v17.894a14.746,14.746,0,0,0,.3,3.289A4.2,4.2,0,0,0,15.479-9.89q1.633,1.1,5.267,1.1a11.454,11.454,0,0,0,5.8-1.127,4.381,4.381,0,0,0,2.185-2.507,15,15,0,0,0,.345-3.542Z" transform="matrix(-0.98, -0.2, 0.2, -0.98, 384.192, 660.507)" fill="#333"/>
    </g>
  </g>
  <path id="パス_738" data-name="パス 738" d="M28.566-24.242q-5.474-.276-8.1-.322V-8.832q2.668-.046,8.1-.322V0H1.84V-9.154q5.29.276,8.05.322V-24.564q-2.76.046-8.05.322V-33.4H28.566Z" transform="translate(342.899 651.934) rotate(-165.515)" fill="#333"/>
  <path id="パス_739" data-name="パス 739" d="M22.08.46q-10.4,0-15.318-4.416T1.84-16.56q0-8.234,4.922-13.018T22.08-34.362q14.536,0,19.458,9.982A76.575,76.575,0,0,0,31.832-20.1a8.229,8.229,0,0,0-4.209-3.818,14.658,14.658,0,0,0-5.865-1.242q-4.416,0-6.578,2.323a8.09,8.09,0,0,0-2.162,5.727,8.123,8.123,0,0,0,2.323,6q2.323,2.323,7.107,2.323a12.419,12.419,0,0,0,6.072-1.265,7.476,7.476,0,0,0,3.312-4.025q3.772,2.024,9.66,4.554A13.687,13.687,0,0,1,33.81-1.748,30.609,30.609,0,0,1,22.08.46Z" transform="matrix(-0.952, -0.305, 0.305, -0.952, 313.646, 644.597)" fill="#333"/>
  <path id="パス_740" data-name="パス 740" d="M28.566-24.242q-5.474-.276-8.1-.322V-8.832q2.668-.046,8.1-.322V0H1.84V-9.154q5.29.276,8.05.322V-24.564q-2.76.046-8.05.322V-33.4H28.566Z" transform="translate(272.6 631.286) rotate(-158.654)" fill="#333"/>
  <path id="パス_741" data-name="パス 741" d="M16.74-8.865q2.565-.045,13.23-.36,1.35-.045,3.15-.135T37.125-9.5a36.621,36.621,0,0,0-.382,4.23Q36.675-3.15,36.675,0H2.16V-10.035q2.475-1.4,5.4-3.443t7.56-5.378q4.32-3.15,6.255-4.5-3.555.045-14.265.5-3.69.18-4.95.225,0-3.33-.068-5.58T1.8-32.67H36.675v10.08q-2.385,1.575-8.82,6.12Q20.655-11.34,16.74-8.865Z" transform="translate(244.078 621.422) rotate(-154.834)" fill="#333"/>
  <path id="パス_742" data-name="パス 742" d="M44.85-33.4,48.438,0H36.524l-.736-23.828L31.188,0H19.136L14.444-23.644,13.754,0H1.84L5.428-33.4h15.64l4,21.758,3.5-21.758Z" transform="translate(208.79 604.123) rotate(-149.247)" fill="#333"/>
  <text id="_6" data-name=" " transform="translate(166.2 577.944) rotate(-145.046)" fill="#333" font-size="46" font-family="DelaGothicOne-Regular, Dela Gothic One"><tspan x="0" y="0"> </tspan></text>
  <path id="パス_743" data-name="パス 743" d="M37.98-32.715V-16.83q0,8.415-4.342,12.847T19.89.45A30.392,30.392,0,0,1,9.923-1.125,31.974,31.974,0,0,1,1.8-5.22q.855-2.79,1.4-5.355a47.772,47.772,0,0,0,.81-5.625,31.345,31.345,0,0,0,8.55,5.175,21.634,21.634,0,0,0,7.47,1.44q3.69,0,5.265-1.665t1.62-5.715v-3.42q0-7.29-.4-12.33Z" transform="matrix(-0.779, -0.627, 0.627, -0.779, 158.053, 574.157)" fill="#333"/>
  <path id="パス_744" data-name="パス 744" d="M29.072-33.442H40.48v18.308A15.256,15.256,0,0,1,35.857-3.956Q31.326.46,20.608.46,9.752.46,5.75-3.749T1.84-14.812v-18.63H13.248v17.894a14.746,14.746,0,0,0,.3,3.289A4.2,4.2,0,0,0,15.479-9.89q1.633,1.1,5.267,1.1a11.454,11.454,0,0,0,5.8-1.127,4.381,4.381,0,0,0,2.185-2.507,15,15,0,0,0,.345-3.542Z" transform="matrix(-0.694, -0.72, 0.72, -0.694, 127.432, 548.441)" fill="#333"/>
  <path id="パス_745" data-name="パス 745" d="M28.566-24.242q-5.474-.276-8.1-.322V-8.832q2.668-.046,8.1-.322V0H1.84V-9.154q5.29.276,8.05.322V-24.564q-2.76.046-8.05.322V-33.4H28.566Z" transform="translate(98.751 518.253) rotate(-126.723)" fill="#333"/>
  <path id="パス_746" data-name="パス 746" d="M22.08.46q-10.4,0-15.318-4.416T1.84-16.56q0-8.234,4.922-13.018T22.08-34.362q14.536,0,19.458,9.982A76.575,76.575,0,0,0,31.832-20.1a8.229,8.229,0,0,0-4.209-3.818,14.658,14.658,0,0,0-5.865-1.242q-4.416,0-6.578,2.323a8.09,8.09,0,0,0-2.162,5.727,8.123,8.123,0,0,0,2.323,6q2.323,2.323,7.107,2.323a12.419,12.419,0,0,0,6.072-1.265,7.476,7.476,0,0,0,3.312-4.025q3.772,2.024,9.66,4.554A13.687,13.687,0,0,1,33.81-1.748,30.609,30.609,0,0,1,22.08.46Z" transform="translate(80.611 494.868) rotate(-118.725)" fill="#333"/>
  <g id="グループ_15" data-name="グループ 15">
    <g id="マスクグループ_70" data-name="マスクグループ 70" clip-path="url(#clip-path-2)">
      <path id="パス_748" data-name="パス 748" d="M28.566-24.242q-5.474-.276-8.1-.322V-8.832q2.668-.046,8.1-.322V0H1.84V-9.154q5.29.276,8.05.322V-24.564q-2.76.046-8.05.322V-33.4H28.566Z" transform="translate(60.512 457.393) rotate(-110.263)" fill="#333"/>
      <path id="パス_749" data-name="パス 749" d="M16.74-8.865q2.565-.045,13.23-.36,1.35-.045,3.15-.135T37.125-9.5a36.621,36.621,0,0,0-.382,4.23Q36.675-3.15,36.675,0H2.16V-10.035q2.475-1.4,5.4-3.443t7.56-5.378q4.32-3.15,6.255-4.5-3.555.045-14.265.5-3.69.18-4.95.225,0-3.33-.068-5.58T1.8-32.67H36.675v10.08q-2.385,1.575-8.82,6.12Q20.655-11.34,16.74-8.865Z" transform="translate(48.915 429.991) rotate(-102.132)" fill="#333"/>
      <path id="パス_750" data-name="パス 750" d="M44.85-33.4,48.438,0H36.524l-.736-23.828L31.188,0H19.136L14.444-23.644,13.754,0H1.84L5.428-33.4h15.64l4,21.758,3.5-21.758Z" transform="translate(41.231 391.892) rotate(-92.169)" fill="#333"/>
      <text id="_7" data-name=" " transform="matrix(0.071, -0.997, 0.997, 0.071, 40.417, 342.211)" fill="#333" font-size="46" font-family="DelaGothicOne-Regular, Dela Gothic One"><tspan x="0" y="0"> </tspan></text>
      <path id="パス_751" data-name="パス 751" d="M37.98-32.715V-16.83q0,8.415-4.342,12.847T19.89.45A30.392,30.392,0,0,1,9.923-1.125,31.974,31.974,0,0,1,1.8-5.22q.855-2.79,1.4-5.355a47.772,47.772,0,0,0,.81-5.625,31.345,31.345,0,0,0,8.55,5.175,21.634,21.634,0,0,0,7.47,1.44q3.69,0,5.265-1.665t1.62-5.715v-3.42q0-7.29-.4-12.33Z" transform="translate(39.239 333.411) rotate(-80.425)" fill="#333"/>
      <path id="パス_752" data-name="パス 752" d="M29.072-33.442H40.48v18.308A15.256,15.256,0,0,1,35.857-3.956Q31.326.46,20.608.46,9.752.46,5.75-3.749T1.84-14.812v-18.63H13.248v17.894a14.746,14.746,0,0,0,.3,3.289A4.2,4.2,0,0,0,15.479-9.89q1.633,1.1,5.267,1.1a11.454,11.454,0,0,0,5.8-1.127,4.381,4.381,0,0,0,2.185-2.507,15,15,0,0,0,.345-3.542Z" transform="translate(46.651 294.376) rotate(-70.865)" fill="#333"/>
    </g>
  </g>
  <path id="パス_753" data-name="パス 753" d="M28.566-24.242q-5.474-.276-8.1-.322V-8.832q2.668-.046,8.1-.322V0H1.84V-9.154q5.29.276,8.05.322V-24.564q-2.76.046-8.05.322V-33.4H28.566Z" transform="translate(60.596 255.32) rotate(-62.488)" fill="#333"/>
  <path id="パス_754" data-name="パス 754" d="M22.08.46q-10.4,0-15.318-4.416T1.84-16.56q0-8.234,4.922-13.018T22.08-34.362q14.536,0,19.458,9.982A76.575,76.575,0,0,0,31.832-20.1a8.229,8.229,0,0,0-4.209-3.818,14.658,14.658,0,0,0-5.865-1.242q-4.416,0-6.578,2.323a8.09,8.09,0,0,0-2.162,5.727,8.123,8.123,0,0,0,2.323,6q2.323,2.323,7.107,2.323a12.419,12.419,0,0,0,6.072-1.265,7.476,7.476,0,0,0,3.312-4.025q3.772,2.024,9.66,4.554A13.687,13.687,0,0,1,33.81-1.748,30.609,30.609,0,0,1,22.08.46Z" transform="translate(73.824 228.841) rotate(-54.4)" fill="#333"/>
  <path id="パス_755" data-name="パス 755" d="M28.566-24.242q-5.474-.276-8.1-.322V-8.832q2.668-.046,8.1-.322V0H1.84V-9.154q5.29.276,8.05.322V-24.564q-2.76.046-8.05.322V-33.4H28.566Z" transform="matrix(0.682, -0.731, 0.731, 0.682, 98.992, 194.379)" fill="#333"/>
  <path id="パス_756" data-name="パス 756" d="M16.74-8.865q2.565-.045,13.23-.36,1.35-.045,3.15-.135T37.125-9.5a36.621,36.621,0,0,0-.382,4.23Q36.675-3.15,36.675,0H2.16V-10.035q2.475-1.4,5.4-3.443t7.56-5.378q4.32-3.15,6.255-4.5-3.555.045-14.265.5-3.69.18-4.95.225,0-3.33-.068-5.58T1.8-32.67H36.675v10.08q-2.385,1.575-8.82,6.12Q20.655-11.34,16.74-8.865Z" transform="matrix(0.758, -0.652, 0.652, 0.758, 118.446, 171.673)" fill="#333"/>
  <path id="パス_757" data-name="パス 757" d="M44.85-33.4,48.438,0H36.524l-.736-23.828L31.188,0H19.136L14.444-23.644,13.754,0H1.84L5.428-33.4h15.64l4,21.758,3.5-21.758Z" transform="matrix(0.832, -0.554, 0.554, 0.832, 148.576, 146.678)" fill="#333"/>
  <text id="_8" data-name=" " transform="translate(190.611 119.57) rotate(-29.585)" fill="#333" font-size="46" font-family="DelaGothicOne-Regular, Dela Gothic One"><tspan x="0" y="0"> </tspan></text>
  <path id="パス_758" data-name="パス 758" d="M37.98-32.715V-16.83q0,8.415-4.342,12.847T19.89.45A30.392,30.392,0,0,1,9.923-1.125,31.974,31.974,0,0,1,1.8-5.22q.855-2.79,1.4-5.355a47.772,47.772,0,0,0,.81-5.625,31.345,31.345,0,0,0,8.55,5.175,21.634,21.634,0,0,0,7.47,1.44q3.69,0,5.265-1.665t1.62-5.715v-3.42q0-7.29-.4-12.33Z" transform="translate(197.66 113.926) rotate(-26.48)" fill="#333"/>
  <path id="パス_759" data-name="パス 759" d="M29.072-33.442H40.48v18.308A15.256,15.256,0,0,1,35.857-3.956Q31.326.46,20.608.46,9.752.46,5.75-3.749T1.84-14.812v-18.63H13.248v17.894a14.746,14.746,0,0,0,.3,3.289A4.2,4.2,0,0,0,15.479-9.89q1.633,1.1,5.267,1.1a11.454,11.454,0,0,0,5.8-1.127,4.381,4.381,0,0,0,2.185-2.507,15,15,0,0,0,.345-3.542Z" transform="matrix(0.928, -0.372, 0.372, 0.928, 234.16, 96.838)" fill="#333"/>
  <path id="パス_760" data-name="パス 760" d="M28.566-24.242q-5.474-.276-8.1-.322V-8.832q2.668-.046,8.1-.322V0H1.84V-9.154q5.29.276,8.05.322V-24.564q-2.76.046-8.05.322V-33.4H28.566Z" transform="translate(273.288 81.359) rotate(-18.244)" fill="#333"/>
  <path id="パス_761" data-name="パス 761" d="M22.08.46q-10.4,0-15.318-4.416T1.84-16.56q0-8.234,4.922-13.018T22.08-34.362q14.536,0,19.458,9.982A76.575,76.575,0,0,0,31.832-20.1a8.229,8.229,0,0,0-4.209-3.818,14.658,14.658,0,0,0-5.865-1.242q-4.416,0-6.578,2.323a8.09,8.09,0,0,0-2.162,5.727,8.123,8.123,0,0,0,2.323,6q2.323,2.323,7.107,2.323a12.419,12.419,0,0,0,6.072-1.265,7.476,7.476,0,0,0,3.312-4.025q3.772,2.024,9.66,4.554A13.687,13.687,0,0,1,33.81-1.748,30.609,30.609,0,0,1,22.08.46Z" transform="matrix(0.966, -0.258, 0.258, 0.966, 301.865, 71.747)" fill="#333"/>
  <path id="パス_762" data-name="パス 762" d="M28.566-24.242q-5.474-.276-8.1-.322V-8.832q2.668-.046,8.1-.322V0H1.84V-9.154q5.29.276,8.05.322V-24.564q-2.76.046-8.05.322V-33.4H28.566Z" transform="matrix(0.978, -0.207, 0.207, 0.978, 343.659, 60.776)" fill="#333"/>
  <g id="グループ_17" data-name="グループ 17">
    <g id="グループ_16" data-name="グループ 16" clip-path="url(#clip-path)">
      <path id="パス_763" data-name="パス 763" d="M16.74-8.865q2.565-.045,13.23-.36,1.35-.045,3.15-.135T37.125-9.5a36.621,36.621,0,0,0-.382,4.23Q36.675-3.15,36.675,0H2.16V-10.035q2.475-1.4,5.4-3.443t7.56-5.378q4.32-3.15,6.255-4.5-3.555.045-14.265.5-3.69.18-4.95.225,0-3.33-.068-5.58T1.8-32.67H36.675v10.08q-2.385,1.575-8.82,6.12Q20.655-11.34,16.74-8.865Z" transform="translate(373.071 53.434) rotate(-9.278)" fill="#333"/>
      <path id="パス_764" data-name="パス 764" d="M44.85-33.4,48.438,0H36.524l-.736-23.828L31.188,0H19.136L14.444-23.644,13.754,0H1.84L5.428-33.4h15.64l4,21.758,3.5-21.758Z" transform="matrix(0.994, -0.107, 0.107, 0.994, 412.296, 47.898)" fill="#333"/>
      <text id="_9" data-name=" " transform="translate(462.33 42.874) rotate(-4.183)" fill="#333" font-size="46" font-family="DelaGothicOne-Regular, Dela Gothic One"><tspan x="0" y="0"> </tspan></text>
      <text id="_10" data-name=" " transform="translate(471.485 42.204) rotate(-3.596)" fill="#333" font-size="46" font-family="DelaGothicOne-Regular, Dela Gothic One"><tspan x="0" y="0"> </tspan></text>
    </g>
  </g>
</svg>
